<?xml version="1.0" encoding="UTF-8"?>
<svg width="79px" height="79px" viewBox="0 0 79 79" version="1.1" xmlns="http://www.w3.org/2000/svg" xmlns:xlink="http://www.w3.org/1999/xlink">
    <!-- Generator: Sketch 52.6 (67491) - http://www.bohemiancoding.com/sketch -->
    <title>Dell_logo_6_</title>
    <desc>Created with Sketch.</desc>
    <g id="Page-1" stroke="none" stroke-width="1" fill="none" fill-rule="evenodd">
        <g id="SSP_Landing_Page" transform="translate(-169.000000, -31.000000)" fill="#FFFFFF">
            <g id="Page-1_6_" transform="translate(169.000000, 31.000000)">
                <path d="M15.43,44.57 L15.43,34.38 L18.59,34.38 C21.27,34.38 23.43,36.66 23.43,39.48 C23.43,42.3 21.26,44.58 18.59,44.58 L15.43,44.58 L15.43,44.57 Z M18.77,48.49 C22.77,48.49 26.14,45.74 27.1,42.01 L36.83,49.66 L46.56,42.01 L46.56,48.48 L57.66,48.48 L57.66,45.04 L50.47,45.04 L50.47,31.18 L46.56,31.18 L46.56,37.65 L37.23,44.98 L35.14,43.34 L39.61,39.83 L44.47,36.01 L41.69,33.83 L32.36,41.16 L30.27,39.52 L39.6,32.19 L36.82,30.01 L27.09,37.66 C26.13,33.93 22.77,31.18 18.76,31.18 L11.79,31.18 L11.79,48.49 L18.77,48.49 Z M70.03,44.74 L70.03,48.21 L59.11,48.21 L59.11,30.74 L62.95,30.74 L62.95,44.74 L70.03,44.74 Z M39.82,74.42 C20.32,74.42 4.51,58.61 4.51,39.11 C4.51,19.61 20.32,3.8 39.82,3.8 C59.32,3.8 75.13,19.61 75.13,39.11 C75.13,58.61 59.32,74.42 39.82,74.42 Z M39.46,0.16 C17.75,0.16 0.15,17.76 0.15,39.47 C0.15,61.18 17.75,78.78 39.46,78.78 C61.17,78.78 78.77,61.18 78.77,39.47 C78.77,17.76 61.17,0.16 39.46,0.16 Z" id="Dell_logo_6_"></path>
            </g>
        </g>
    </g>
</svg>